<svg xmlns="http://www.w3.org/2000/svg" id="elementos" version="1.1" viewBox="0 0 696.4 129"><defs><style>.cls-1{fill:#647279;stroke-width:0}</style></defs><path d="M63.5 47.7h.7v-1.2h.6v-.6h-.6v-.6h-.7v.6h-.6v.6h.6v1.2Zm-2.1 3.2h.7v-3h-.7v3Zm6-1.6c-.1 0-.2-.1-.4-.2h-.5c-.1-.2-.2-.2-.2-.2s-.1-.1-.1-.2 0-.2.1-.2h.3c.2 0 .5.1.6.3l.3-.5c-.2-.2-.5-.4-.9-.4s-.7.1-.9.3c-.2.2-.3.4-.3.7s.1.5.3.7c.1 0 .2.2.6.2h.3c.1 0 .2.1.2.1v.2c0 .2 0 .2-.2.3h-.3c-.3 0-.6-.2-.7-.3l-.3.5c.2.2.5.4 1 .4s.7-.1.9-.3c.2-.2.3-.4.3-.7s-.1-.5-.3-.6Zm-3-.3h-1v-1.1h-.7v3h.7v-1.3h1v1.3h.7v-3h-.7V49ZM59 62.3h-1.7l-1.2-1.2-1.2 1.2h-1.7V64L52 65.2l1.2 1.2v1.7h1.7l1.2 1.2 1.2-1.2H59v-1.7l1.2-1.2L59 64v-1.7ZM57.8 66v1h-1s-.5.4-.7.7l-.7-.7h-1v-1s-.5-.4-.7-.7l.7-.7v-1h1l.7-.7.7.7h1v1l.7.7-.7.7m2.1 26.8c.4.4.8.6 1.1.8 1.4-.8 2.4-2.2 2.4-4h-1.2c0 1.5-1 2.8-2.4 3.1m1.9-4.2h-1.3c0 1.3-.8 2.5-1.9 3 .3.3.6.7.9.9 1.3-.8 2.3-2.2 2.3-3.9m29.4-20.7h-3.9c-.5-1-1.3-1.7-2.3-2.1 1.4-.4 2.4-1.5 2.4-2.8v-.2c0-1.5-1-3.1-3.3-3.1-.1-.2-.3-.7-.3-1.5v-.3c0-1 .3-2.2.7-3.6.5-1.7 1-3.6 1-5.7v-.8c-.2-2.7-1.2-5-3-6.5-1.8-1.6-4.3-2.3-7-2.2-.5 0-.9 0-1.4.2.4-.3.8-.6.9-1l4.8-8.1-.8-1.6h-1.8l-.4.8c-.2-.1-.8-.5-.8-.5l-1.5.8v1.7s.6.3.7.4c-.1.3-.2.4-.4.6-.6-.4-1.6-1-2.7-1.5.1-.5.3-1 .4-1.6.3 0 .9.2.9.2l1.4-1.2-.6-1.7s-.6-.2-.9-.2c0-.3.2-.9.2-.9L72.2 24l-1.7.6s-.2.6-.2.9c-.3 0-.9-.2-.9-.2L68 26.5l.6 1.8s.6.2.9.2c-.1.5-.3.9-.4 1.4-.7-.1-2-.4-3.5-.5v-1.8h1.1l1.2-1.7-1.2-1.8h-1.1v-1l-1.8-1.2-1.8 1.2v1h-1.1l-1.2 1.8 1.2 1.7H62v1.8c-1.5.1-2.8.4-3.5.5-.1-.5-.2-.9-.4-1.4.3 0 .9-.2.9-.2l.6-1.8-1.4-1.2s-.6.1-.9.2c0-.3-.3-.9-.3-.9l-1.7-.6-1.2 1.4s.2.6.2.9c-.3 0-.9.2-.9.2l-.6 1.7 1.4 1.2s.6-.2.9-.2c.1.5.3 1 .4 1.6-1.2.5-2.1 1.1-2.7 1.5l-.4-.6c.2-.1.7-.4.7-.4v-1.7l-1.4-.8s-.5.3-.8.5c-.1-.2-.5-.7-.5-.7h-1.8l-.7 1.5 4.8 8.1c.2.4.5.7.9 1-.4-.1-.9-.2-1.4-.2-2.7-.2-5.2.6-7 2.2-1.8 1.5-2.8 3.8-3 6.5v.8c0 2.1.5 4 1 5.7.4 1.4.7 2.6.7 3.6v.3c0 .8-.2 1.3-.3 1.5-2.3 0-3.2 1.6-3.3 3.1v.2c0 1.3 1 2.4 2.3 2.8-1 .4-1.8 1.1-2.3 2.1h-3.9l-3.7 3.7 3.3 3.3c-.1 2.3-.5 4-1.3 5.5-.9 1.8-.9 4-.9 4.6 0 1.6.4 5.6 4.5 8.9 1.9 1.5 3.5 1.9 5 2.2 1.1.2 2.1.4 3.2 1 2.6 1.3 3.5 2.4 4.2 3.4v.2c4.6 5.8 10.5 6.4 12.9 6.4s8.2-.6 12.7-6.4v-.2c.8-1 1.7-2.1 4.3-3.4 1.2-.6 2.2-.8 3.2-1 1.5-.3 3.1-.7 5-2.2 4-3.2 4.5-7.3 4.5-8.9s0-2.9-.9-4.6c-.8-1.6-1.2-3.2-1.3-5.5l3.3-3.3-3.7-3.7Zm-5.1.7s0 .2.1.3c0 .1 0 .2.1.3.3.9.4 1.8.4 2.7 0 1.6-.4 3.5-.9 5.4-1 3.5-2.5 7.2-3.4 9-.3-.8-.9-2.1-.9-2.1s-1.5.4-2.4.6c.9-1.4 2.5-3.9 4.2-6.6 1.1-1.8 1.9-4.3 1.9-6.4s-.1-1.7-.4-2.3c0-.2-.1-.3-.2-.5-.5-.8-1.3-1.4-2.4-1.4s-2.5 1.2-2.5 2.4h1.3c0-.6.5-1.1 1.2-1.1s.9.2 1.2.6c0 0 .1.1.2.3 0 0 0 .1.1.2 0 .3.1.5.1.8 0 1.4-.9 2.3-2.4 2.3s-2.9-1.2-2.9-3 1.1-3.4 3.6-3.4 3.3.9 3.9 2m-35.2 1.5c0-5.7 1.1-11.2 2.9-15.7v6.2l2.4-2.4 2.4 2.4v-5.5l11.7 7.7h-9.4l2.4 2.4-2.4 2.4H77V70H50.6Zm26.4 1.2c0 6.7-1.5 12.9-4 17.6-2.5 4.8-5.8 7.4-9.2 7.4s-6.7-2.6-9.2-7.4c-2.5-4.7-3.9-10.9-4-17.6h26.4ZM47.3 55.8c-.3-1.5-.7-3-.7-5v-1.2c.2-3.4 2.2-4.7 3.3-5.3.4-.2.7-.3 1.1-.4-.4.5-.7 1.1-.7 1.8v.3c0 2 1.4 3.4 3.5 3.5h1c-.4.7-.8 1.3-1.2 2.1-2.2 4.2-3.6 9.6-4 15.5-.8-1-2-1.8-3.6-1.9.9-.7 1.7-2 1.8-4.6v-.7c0-1.4-.3-2.7-.6-4m22.4-10.3c-.9-.6-1.7-1.1-2.6-1.5 0-.6 0-1.8.6-2.8 1.6-.2 3.1-.5 4.4-1-.3.2-.6.5-.8.8-1 1.2-1.6 2.8-1.5 4.5m-5.8-5.3c-5.8 0-9.6-1.6-9.9-2.6 0-1.4 3.9-3.6 9.9-3.6s9.9 2.1 9.9 3.6-3.9 2.7-9.9 2.7m2.3 1.1c-.3.8-.4 1.7-.4 2.3-.6-.1-1.2-.2-1.8-.2s-1.2 0-1.8.2c0-.6 0-1.4-.4-2.3h4.4m-5.9-.2c.5 1 .6 2.2.5 2.8-.9.4-1.8.9-2.6 1.6 0-1.7-.4-3.3-1.5-4.5-.2-.3-.5-.6-.8-.8 1.2.4 2.8.8 4.4 1m3.6 3.4c3.4 0 6.7 2.6 9.2 7.4 1.3 2.6 2.4 5.6 3 8.9L57 48.5c2-2.4 4.4-3.7 6.8-3.7m12.7 18c.2 1 .3 2.1.4 3.1L55.1 51.5c.4-.7.9-1.4 1.3-2l20.1 13.3Zm-12.8 1.3H72l3.5 2.3H63.6l1.2-1.2-1.2-1.2m-6.4-9.6v3.3c-.3-.4-1.2-1.2-1.2-1.2s-.8.8-1.2 1.1v-4.8l2.3 1.5Zm17.1-2.8-1.2-2.1h1c2.1-.1 3.5-1.6 3.5-3.5v-.3c0-.6-.3-1.3-.7-1.8.4 0 .7.2 1.1.4 1.1.5 3.1 1.9 3.3 5.3v1.2c0 2-.3 3.5-.7 5-.3 1.3-.6 2.6-.6 4v.7c.2 2.6 1 4 1.8 4.6-1.6 0-2.8.8-3.6 1.9-.4-5.8-1.8-11.2-4-15.5m1.2-11.1c2.4-.2 4.6.5 6.1 1.8s2.4 3.3 2.5 5.7c.1 2.2-.4 4.2-1 6.1-.4 1.5-.8 3-.7 4.3.1 1.8.7 2.4.8 2.5h.2c0 .1.2.1.2.1 2-.1 2.3 1.3 2.3 1.9 0 .9-.8 1.7-2 1.8-2 .1-2.6-2.2-2.7-4.1-.1-1.6.2-2.9.5-4.4.4-1.8.8-3.8.7-6.5-.2-2.9-1.7-5.2-4-6.3-1.8-.9-3.9-.9-5.2 0-.7.5-1.1 1.3-1.1 2.1h1.2c0-.5.4-1.2 1.2-1.3.5 0 .8.1 1.1.4.4.4.6 1 .6 1.3.1 1.4-.8 2.4-2.3 2.5-.8 0-1.6-.2-2.2-.7-.6-.5-.9-1.2-1-2.1 0-1.3.3-2.6 1.2-3.6.8-.9 2-1.5 3.3-1.6m-21.8-4c-1.2-2.1-3.4-5.8-3.6-6.2l.1-.2h.3c.2.3.7 1.2.7 1.2s.9-.6 1.2-.7l.2.1v.3c-.3.2-1.2.7-1.2.7l1.7 2.9.6-.5s1.5-1.2 3.5-2l.5-.2-1-3.8s-1.1.3-1.4.4c-.1 0-.1-.1-.3-.2 0-.2 0-.2.1-.3.3-.1 1.5-.4 1.5-.4s-.3-1.1-.4-1.5c0 0 .1-.1.2-.3.2 0 .2 0 .3.1 0 .3.4 1.4.4 1.4s1.1-.3 1.5-.4c0 .1.1.1.2.2v.3c-.4 0-1.5.4-1.5.4l1 3.8.6-.2s2-.6 4.4-.7h.6v-4.3h-1.6c-.1-.2-.2-.3-.3-.5.1-.2.2-.3.3-.5h1.6v-1.7c.2-.1.3-.2.5-.4.2.2.3.2.5.4v1.7h1.6c.1.2.2.3.3.5-.2.2-.2.3-.3.5h-1.6v4.2h.6c2.4.2 4.4.7 4.4.7l.6.2 1-3.8s-1.1-.3-1.4-.4c0-.1 0-.2-.1-.3.1 0 .2-.1.3-.2.3 0 1.4.4 1.4.4s.3-1.1.4-1.4c.1 0 .2 0 .3-.1.1.1.1.2.2.3 0 .3-.4 1.5-.4 1.5s1.1.3 1.4.4c0 .1 0 .2.1.3-.1.1-.1.1-.3.2-.3 0-1.4-.4-1.4-.4l-1.1 3.8.5.2c1.9.7 3.5 2 3.5 2l.6.5.4-.6 1.3-2.2s-.9-.6-1.1-.7v-.3s.1 0 .2-.1c.3.2 1.2.7 1.2.7s.6-1 .7-1.2h.3c0 .1 0 .1.1.2-.2.4-2.4 4.1-3.6 6.2-1.3-2-5.7-3.5-10.7-3.5s-9.3 1.5-10.7 3.5M42 62.8c0-.6.3-2 2.3-1.9h.2l.2-.1c.2-.1.7-.7.9-2.5 0-1.3-.3-2.8-.8-4.3-.5-1.8-1.1-3.9-.9-6.1.1-2.4 1-4.4 2.5-5.7 1.5-1.3 3.7-2 6.1-1.8 1.4 0 2.5.6 3.4 1.6.8 1 1.3 2.3 1.2 3.6 0 .9-.4 1.6-1 2.1s-1.3.7-2.2.7c-1.5-.1-2.4-1.1-2.3-2.5 0-.4.2-1 .7-1.3.3-.3.7-.4 1.1-.4.8 0 1.2.8 1.2 1.3h1.2c0-.8-.4-1.6-1.2-2.1-1.3-.9-3.4-1-5.2 0-2.3 1.1-3.8 3.4-4 6.3-.2 2.8.2 4.8.7 6.5.3 1.5.6 2.8.5 4.4-.1 2-.7 4.3-2.7 4.1-1.1 0-2-.9-1.9-1.8m-.4 6.2c0-.1 0-.2.1-.3 0 0 0-.2.2-.3.6-1.2 1.8-2 3.9-2s3.6 2 3.6 3.4-1.2 3-2.9 3-2.4-.9-2.4-2.3 0-.5.1-.8v-.1c0-.2.1-.2.2-.3.2-.3.6-.6 1.2-.6s1.2.6 1.2 1l1.2.1c0-1.1-1-2.4-2.5-2.4s-1.9.6-2.4 1.4c0 .2-.2.3-.2.5-.3.7-.4 1.4-.4 2.3 0 2.1.8 4.6 1.9 6.4 1.7 2.7 3.2 5.2 4.2 6.6-.9-.2-2.4-.6-2.4-.6s-.5 1.3-.9 2.1c-.9-1.8-2.4-5.5-3.4-9-.5-1.9-.9-3.8-.9-5.4s0-1.8.4-2.7m-.6 12.7c.2-.5.5-1.1.6-1.7v-.3c1.4 4.3 3.3 8 3.4 8.2l.6 1.2s1.2-2.9 1.5-3.6c.7.2 4.4 1.2 4.4 1.2l-.9-1.3s-2.4-3.7-5-7.9c-.8-1.3-1.3-2.8-1.6-4.2.6.5 1.5.9 2.5.9s2.3-.5 3.1-1.4c.3 6.3 1.7 12.2 4.1 16.8 2.7 5.2 6.4 8.1 10.3 8.1s7.6-2.9 10.3-8.1c2.4-4.6 3.8-10.5 4.1-16.8.7.8 1.8 1.4 3.1 1.4s1.8-.3 2.5-.9c-.2 1.4-.8 2.9-1.6 4.2-2.6 4.3-5 7.9-5 7.9l-.9 1.4s3.6-1 4.4-1.2c.3.7 1.5 3.6 1.5 3.6l.6-1.2c.1-.2 2-4 3.4-8.2v.2c.1.7.4 1.3.6 1.8.4 1 .8 2 .8 3.2s-.2 4.5-5.1 5.4c-2.6.5-4.6 1.2-7.4 3.3-1.7 1.3-2.7 2.5-3.4 3.4-.2.3-.4.6-.6.8-2.9 3.2-6.7 3.4-7.5 3.4s-4.6-.2-7.5-3.4c-.2-.2-.4-.5-.6-.8-.7-.9-1.6-2.1-3.4-3.4-2.8-2.1-4.8-2.7-7.4-3.3-4.8-.9-5.1-4.7-5.1-5.4 0-1.2.4-2.2.8-3.2m-5.5-10.4 1.6-1.6v3.2l-1.6-1.6Zm56.8 9.4c.6 1.2.8 2.9.8 4.1s-.4 5-4 7.9c-1.7 1.3-3 1.6-4.5 1.9-1.1.3-2.2.5-3.5 1.1-2.8 1.4-3.9 2.8-4.6 3.8v.2c-4.3 5.4-9.7 5.9-11.9 5.9s-7.6-.6-11.7-5.9v-.2c-.9-1-1.9-2.3-4.8-3.8-1.3-.6-2.5-.9-3.5-1.1-1.4-.3-2.8-.6-4.5-1.9-3.6-2.9-4-6.5-4-7.9s.2-2.9.8-4.1c1.1-2.2 1.5-4.5 1.5-8.2v-3.6h2.6c-.3.8-.4 1.7-.4 2.7 0 1.6.4 3.6.9 5.5-.1 1-.3 1.7-.5 2.4-.1.6-.3 1.1-.5 1.7-.4 1-.9 2.2-.9 3.6 0 2.5 1.6 5.8 6 6.7 2.5.5 4.2 1.1 6.9 3 1.6 1.2 2.4 2.2 3.1 3.1.2.3.5.6.7.9 3.3 3.6 7.6 3.8 8.4 3.8s5.1-.2 8.4-3.8c.2-.2.4-.5.7-.9.7-.9 1.6-2 3.1-3.1 2.7-1.9 4.4-2.5 6.9-3 4.5-.9 6.1-4.1 6.1-6.7s-.5-2.6-.9-3.6c-.2-.5-.4-1.1-.5-1.6-.2-.8-.4-1.5-.5-2.5.5-2 .9-3.9.9-5.5s-.1-1.9-.4-2.7h2.5v3.6c0 3.7.4 6 1.5 8.2m-.5-7.8V69.9l1.6 1.6-1.6 1.6ZM55.8 83.9c0 1.5 1.1 2.5 2.4 2.5h.4v.9c0 1-.5 2-1.3 2.6.2.3.5.7.7 1 1.1-.8 1.8-2.1 1.8-3.6v-2.1h-1.6c-.7 0-1.2-.5-1.2-1.2s-.4-1.2-.8-1.3c-.5-.2-.8-.6-.8-1.1v-.7c0-.5-.2-.8-.6-1.1-1-.6-1.6-1.6-1.6-2.8v-.7l3.9 1.1 4 4.7 2.1-1.8v-2.7h-1.3s.6-1.2 2-1.2 2 .9 2.2 1.8l.9 3.5 3.6-4.3 3.9-1.1v.7c0 1.2-.7 2.3-1.6 2.8-.4.2-.6.6-.6 1.1V81.5c0 .6-.3 1-.8 1.2-.5.1-.9.6-.9 1.2 0 .8-.5 1.3-1.2 1.3h-3s0 2.1-1.5 3.8c-.4.4-.9 1.4-.3 2.7.6 1.4 1.9 2 1.9 2 .5-.2 1.2-.8 1.2-.8-1.1-.3-1.7-1-2-1.7-.3-.5-.1-1.1.2-1.4.5-.5 1-1.4 1.3-2 .3-.7.4-1.4.4-1.4h1.8c1.3 0 2.4-1.1 2.4-2.4v-.1c1-.3 1.7-1.2 1.7-2.3V81c1.4-.8 2.3-2.2 2.3-3.9s-.2-1.5-.5-2.2L70 76.4l-2.4 2.9s-.2-.6-.3-1.3c-.3-1.4-1.4-2.1-1.4-2.1l1.3-2.8-2.1.4L64 72l-1.2 1.6-2-.4 1.3 2.8c-.8.6-1.4 1.5-1.4 2.8v.2h1.4v.9l-.7.6-3.4-4.1-5.3-1.5c-.4.7-.6 1.4-.6 2.2 0 1.7.9 3.2 2.3 3.9v.6c0 1.1.7 2 1.6 2.3m7.4-9 .6-.8.6.8h.6l-.3.5s-.5-.1-.9-.1-.9.1-.9.1l-.2-.6h.6ZM158.7 68.9v-9.8c0-1.6-.3-2.8-.9-4.2l5.1-.9v14.2c0 2.5 1.3 3.8 3.8 3.8s3.3-.4 4.4-1.2c-.4 2.8-2.4 4.3-6 4.3s-6.4-1.9-6.4-6.2Zm12.3 2V59.3c0-1.7-.3-3.1-.9-4.4l5.2-.9c0 3 0 6.6-.2 9.7 0 2.4-.1 4.6-.1 6.6s.6 1.7 1.7 1.7 1 0 1.3-.2v2.7c-.7.4-1.8.7-3.1.7-2.4 0-3.9-1.5-3.9-4.2ZM183.6 71.3V59.4c0-1.6-.2-3-.6-4.5l4.8-.9v17.3c0 1.5.2 2.5.4 3.5h-4.9c.3-1 .4-2 .4-3.5Zm12.5 0v-10c0-2.5-1.3-3.6-3.9-3.6s-3 .3-4.4.8c.8-3.2 3-4.6 6.3-4.6s6.1 2.4 6.1 6.3v11.1c0 1.5.1 2.5.4 3.5h-4.8c.2-1 .3-2 .3-3.5ZM206.4 64.7c0-6.5 4.1-10.8 9.6-10.8s4.5.5 5.9 1.1v4c-1.6-.7-3.3-1.3-5.5-1.3-3.9 0-6.1 2.8-6.1 7s2.8 7.2 6.8 7.2 3.3-.4 4.7-.9v3.2c-1.6.5-3.4.8-5.6.8-5.8 0-9.9-3.6-9.9-10.4ZM283.7 39.9v-9c0-.8 0-1.6-.1-2.5h2.7c0 .8-.1 1.7-.1 2.5v8.5c0 3.4 1.9 4.8 4.9 4.8s4.6-1.5 4.6-4.6v-9.1c0-.8 0-1.5-.1-2.2h2.7v11.5c0 3.4-2.9 6.5-7.1 6.5s-7-2.1-7-6.5ZM302.4 44.1v-6.8c0-.9 0-1.7-.4-2.6l2.7-.5V44c0 .8 0 1.4.2 2h-2.8c.2-.6.2-1.2.2-2Zm7.1 0v-5.7c0-1.4-.7-2.1-2.2-2.1s-1.7.2-2.5.5c.4-1.8 1.7-2.6 3.6-2.6s3.5 1.3 3.5 3.6v6.3c0 .8 0 1.4.2 2h-2.7c0-.6.2-1.2.2-2ZM316 44.1v-6.8c0-.9 0-1.7-.4-2.6l2.7-.5V44c0 .8 0 1.4.2 2h-2.8c.2-.6.2-1.2.2-2Zm-.1-12.6v-1.9c0-.6 0-.5.4-.5h1.8c.4 0 .4 0 .4.4v1.9c0 .4 0 .4-.4.4h-1.8c-.3 0-.4 0-.4-.4ZM324 42.8l-3.1-8.4h2.9c0 .6.2 1.2.4 1.8l2.3 6.9h.1l2.5-6.9c.2-.6.4-1.2.4-1.8h2.6l-.9 2.2-2.5 6.2c-.4 1.1-.9 2.1-1.1 3.3h-2.7c-.2-1.2-.6-2.2-1-3.3ZM333.5 40.5c0-3.7 2.1-6.3 5.3-6.3s4.6 1.8 4.6 5.5v.9h-7.6v.4c0 1.9 1.3 3.3 4 3.3s2.4-.3 3.4-.7v1.8c-.9.4-2.2.8-3.8.8-3.7 0-5.8-2-5.8-5.8Zm7.6-1.4c0-1.7-.8-2.8-2.5-2.8s-2.6 1.1-2.8 2.8h5.2ZM346.8 44.1v-7c0-.9 0-1.6-.4-2.4l2.8-.5v9.9c0 .9.1 1.4.3 2h-2.8c.2-.5.2-1.1.2-2Zm4.5-7.5c-.8 0-1.6.1-2.3.5.3-1.7 1.4-2.6 3-2.7h1.3v2.5c-.6-.1-1.3-.2-2-.2ZM355.2 45.5v-2.1c1.2.7 2.4 1.2 3.8 1.2s1.8-.4 1.8-1.3-1-1.2-2.1-1.6c-1.6-.6-3.7-1.3-3.7-3.6s1.8-3.8 4.1-3.8 2.4.3 3.2.6v2.3c-.9-.5-2.1-.8-3.4-.8s-1.9.4-1.9 1.4 1 1.3 2.2 1.7c1.6.5 3.6 1.1 3.6 3.4s-1.6 3.4-4 3.4-2.7-.3-3.6-.8ZM366.3 44.1v-6.8c0-.9 0-1.7-.4-2.6l2.7-.5V44c0 .8 0 1.4.2 2H366c.2-.6.2-1.2.2-2Zm-.1-12.6v-1.9c0-.6 0-.5.4-.5h1.8c.4 0 .4 0 .4.4v1.9c0 .4 0 .4-.4.4h-1.8c-.3 0-.4 0-.4-.4ZM371.9 40.5c0-3.8 2.2-6.3 5.4-6.3s1.9.2 2.5.5v-4c0-1-.2-1.7-.5-2.6l2.9-.5v12.2c-.1 1.3-.1 2.4-.1 3.7s.4.9.9.9.6 0 .8-.1v1.5c-.4.2-.9.4-1.8.4-1.4 0-2.2-.9-2.2-2.4v-7.2c-.6-.2-1.4-.4-2.3-.4-2 0-3.2 1.4-3.2 3.9s1.2 4.1 3.5 4.1 1.5-.1 2-.4c-.1 1.3-1 2.3-3 2.3-2.9 0-4.9-2-4.9-5.8ZM385.9 43.2c0-2 1.3-3 3.3-3.2l2.8-.3v-1.5c0-1.1-.7-1.7-2-1.7s-2.6.3-3.7.9V35c1.2-.5 2.6-.8 4.2-.8 2.4 0 4 1 4 3.3s-.3 4.1-.3 6 .3 1 .9 1 .6 0 .9-.1V46c-.4.2-1 .4-1.8.4-1.4 0-2.3-.9-2.3-2.4v-2.6l-2.2.3c-.9 0-1.6.6-1.6 1.4s.8 1.5 1.8 1.5 1.5-.2 1.9-.5c-.2 1.4-1.1 2.2-2.9 2.2s-3.2-1.2-3.2-3.1ZM397.9 40.5c0-3.8 2.2-6.3 5.4-6.3s1.9.2 2.5.5v-4c0-1-.2-1.7-.5-2.6l2.9-.5v12.2c-.1 1.3-.1 2.4-.1 3.7s.4.9.9.9.6 0 .8-.1v1.5c-.4.2-.9.4-1.8.4-1.4 0-2.2-.9-2.2-2.4v-7.2c-.6-.2-1.4-.4-2.3-.4-2 0-3.2 1.4-3.2 3.9s1.2 4.1 3.5 4.1 1.5-.1 2-.4c-.1 1.3-1 2.3-3 2.3-2.9 0-4.9-2-4.9-5.8ZM286.1 61.1v9.8c0 1.2 0 2.8.2 3.9h-2.7c.1-1.3.2-2.9.3-4.5V56.9h2.2l10.7 13.5h.1v-8.8c0-1.7 0-3.3-.2-4.5h2.7c0 1.1-.1 2.4-.1 3.7V75h-1.9l-11.1-13.9ZM303.3 72c0-2 1.3-3 3.3-3.2l2.8-.3V67c0-1.1-.7-1.7-2-1.7s-2.6.3-3.7.9v-2.4c1.2-.5 2.6-.8 4.2-.8 2.4 0 4 1 4 3.3s-.3 4.1-.3 6 .3 1 .9 1 .6 0 .9-.1v1.6c-.4.2-1 .4-1.8.4-1.4 0-2.3-.9-2.3-2.4v-2.6l-2.2.3c-.9 0-1.6.6-1.6 1.4s.8 1.5 1.8 1.5 1.5-.2 1.9-.5c-.2 1.4-1.1 2.2-2.9 2.2s-3.2-1.2-3.2-3.1ZM315.3 69.1c0-3.7 2.3-6.1 5.5-6.1s2.6.3 3.4.6v2.3c-.9-.4-1.9-.7-3.1-.7-2.2 0-3.5 1.6-3.5 4s1.6 4.1 3.8 4.1 1.9-.2 2.7-.5v1.8c-.9.3-1.9.5-3.2.5-3.3 0-5.6-2-5.6-5.9ZM326.8 72.9v-6.8c0-.9 0-1.7-.4-2.6l2.7-.5v9.8c0 .8 0 1.4.2 2h-2.8c.2-.6.2-1.2.2-2Zm-.1-12.7v-1.9c0-.6 0-.5.4-.5h1.8c.4 0 .4 0 .4.4v1.9c0 .4 0 .4-.4.4h-1.8c-.3 0-.4 0-.4-.4ZM332.4 69.2c0-3.6 2.2-6.2 5.4-6.2s5.4 2.3 5.4 6.1-2.1 6-5.3 6-5.4-2.2-5.4-5.9Zm8.4.2c0-2.5-1-4.2-3-4.2s-3 1.5-3 4 1.2 4 3.1 4 2.9-1.5 2.9-3.8ZM346.4 72.9v-6.8c0-.9 0-1.7-.4-2.6l2.7-.5v9.8c0 .8 0 1.4.2 2h-2.8c.2-.6.2-1.2.2-2Zm7.1 0v-5.7c0-1.4-.7-2.1-2.2-2.1s-1.7.2-2.5.5c.4-1.8 1.7-2.6 3.6-2.6s3.5 1.3 3.5 3.6v6.3c0 .8 0 1.4.2 2h-2.7c0-.6.2-1.2.2-2ZM358.9 72c0-2 1.3-3 3.3-3.2l2.8-.3V67c0-1.1-.7-1.7-2-1.7s-2.6.3-3.7.9v-2.4c1.2-.5 2.6-.8 4.2-.8 2.4 0 4 1 4 3.3s-.3 4.1-.3 6 .3 1 .9 1 .6 0 .9-.1v1.6c-.4.2-1 .4-1.8.4-1.4 0-2.3-.9-2.3-2.4v-2.6l-2.2.3c-.9 0-1.6.6-1.6 1.4s.8 1.5 1.8 1.5 1.5-.2 1.9-.5c-.2 1.4-1.1 2.2-2.9 2.2s-3.2-1.2-3.2-3.1ZM372.1 72.8V59.7c0-1-.2-1.9-.6-2.7l3-.6v16.5c0 .9 0 1.5.3 2h-2.9c.2-.5.3-1.1.3-2ZM282.5 98c0-3.8 2.2-6.3 5.4-6.3s1.9.2 2.5.5v-4c0-1-.2-1.7-.5-2.6l2.9-.5v12.2c-.1 1.3-.1 2.4-.1 3.7s.4.9.9.9.6 0 .8-.1v1.5c-.4.2-.9.4-1.8.4-1.4 0-2.2-.9-2.2-2.4v-7.2c-.6-.2-1.4-.4-2.3-.4-2 0-3.2 1.4-3.2 3.9s1.2 4.1 3.5 4.1 1.5-.1 2-.4c-.1 1.3-1 2.3-3 2.3-2.9 0-4.9-2-4.9-5.8ZM296.3 97.9c0-3.7 2.1-6.3 5.3-6.3s4.6 1.8 4.6 5.5v.9h-7.6v.4c0 1.9 1.3 3.3 4 3.3s2.4-.3 3.4-.7v1.8c-.9.4-2.2.8-3.8.8-3.7 0-5.8-2-5.8-5.8Zm7.6-1.4c0-1.7-.8-2.8-2.5-2.8s-2.6 1.1-2.8 2.8h5.2ZM314.9 94.9c0-5.4 3.6-9.3 9-9.3s4 .4 5.3.9v3c-1.4-1-3.2-1.7-5.5-1.7-3.6 0-6.2 2.6-6.2 6.9s3 7.1 6.9 7.1 3.5-.5 4.7-1.1v2.2c-1.3.6-3.2.9-5.3.9-5.1 0-9-3.2-9-8.9ZM330.7 97.9c0-3.6 2.2-6.2 5.4-6.2s5.4 2.3 5.4 6.1-2.1 6-5.3 6-5.4-2.2-5.4-5.9Zm8.3.2c0-2.5-1-4.2-3-4.2s-3 1.5-3 4 1.2 4 3.1 4 2.9-1.5 2.9-3.8Zm-2.2-11.8h3.1l-3.4 3.8h-1.8l2.1-3.8ZM344.8 101.6v-7c0-.9 0-1.6-.4-2.4l2.8-.5v9.9c0 .9.1 1.4.3 2h-2.8c.2-.5.2-1.1.2-2Zm4.6-7.6c-.8 0-1.6.1-2.3.5.3-1.7 1.4-2.6 3-2.7h1.3v2.5c-.6-.1-1.3-.2-2-.2ZM352.4 98c0-3.8 2.2-6.3 5.4-6.3s1.9.2 2.5.5v-4c0-1-.2-1.7-.5-2.6l2.9-.5v12.2c-.1 1.3-.1 2.4-.1 3.7s.4.9.9.9.6 0 .8-.1v1.5c-.4.2-.9.4-1.8.4-1.4 0-2.2-.9-2.2-2.4v-7.2c-.6-.2-1.4-.4-2.3-.4-2 0-3.2 1.4-3.2 3.9s1.2 4.1 3.5 4.1 1.5-.1 2-.4c-.1 1.3-1 2.3-3 2.3-2.9 0-4.9-2-4.9-5.8ZM366.3 97.9c0-3.6 2.2-6.2 5.4-6.2s5.4 2.3 5.4 6.1-2.1 6-5.3 6-5.4-2.2-5.4-5.9Zm8.4.2c0-2.5-1-4.2-3-4.2s-3 1.5-3 4 1.2 4 3.1 4 2.9-1.5 2.9-3.8ZM380.1 102.5V88.3c0-1-.2-1.8-.6-2.7l3-.6v16.3c.6.4 1.3.6 2.2.6 2.1 0 3.3-1.5 3.3-3.9s-1.1-4.2-3.2-4.2-1.6.2-2.2.5c.3-1.8 1.7-2.7 3.3-2.7 2.9 0 4.5 2.3 4.5 5.8s-2.1 6.2-5.7 6.2-3.2-.4-4.5-1.2ZM392.5 100.7c0-2 1.3-3 3.3-3.2l2.8-.3v-1.5c0-1.1-.7-1.7-2-1.7s-2.6.3-3.7.9v-2.4c1.2-.5 2.6-.8 4.2-.8 2.4 0 4 1 4 3.3s-.3 4.1-.3 6 .3 1 .9 1 .6 0 .9-.1v1.6c-.4.2-1 .4-1.8.4-1.4 0-2.3-.9-2.3-2.4v-2.6l-2.2.3c-.9 0-1.6.6-1.6 1.4s.8 1.5 1.8 1.5 1.5-.2 1.9-.5c-.2 1.4-1.1 2.2-2.9 2.2s-3.2-1.2-3.2-3.1Z" class="cls-1"/><path d="M252 0H0v129h253.8V0H252ZM1.8 1.8H126v125.4H1.8V1.8ZM252 127.2H127.8V1.8H252v125.4Z" class="cls-1"/><rect width="3.8" height="7.8" x="500.3" y="21.8" class="cls-1" rx=".4" ry=".4"/><rect width="5.8" height="3.8" x="506.2" y="25.5" class="cls-1" rx=".4" ry=".4" transform="rotate(-76.9 508.962 27.521)"/><rect width="3.8" height="3.8" x="513" y="28.7" class="cls-1" rx=".4" ry=".4" transform="rotate(-64.3 514.936 30.552)"/><rect width="3.8" height="5.8" x="493.5" y="24.5" class="cls-1" rx=".4" ry=".4" transform="rotate(-13.1 496.297 27.424)"/><rect width="3.8" height="3.8" x="487.7" y="28.7" class="cls-1" rx=".4" ry=".4" transform="rotate(-25.7 489.467 30.714)"/><path d="M502.2 45c-8.8 0-15.7 11.1-15.7 25.3s6.9 25.3 15.7 25.3 15.7-11.1 15.7-25.3S511 45 502.2 45Zm0 3.9c5.5 0 10.3 7.2 11.6 16.7l-18.3-12.1c-.2-.1-.2-.4 0-.5 1.9-2.5 4.3-4 6.8-4Zm-8.6 7.8 17.8 11.8h-20.6c-.2 0-.4-.2-.4-.4.3-4.2 1.2-8.1 2.6-11.2 0-.2.3-.3.5-.1Zm8.6 35.1c-6 0-11.1-8.5-11.8-19.1 0-.2.2-.4.4-.4h22.9c.2 0 .4.2.4.4-.7 10.6-5.8 19.1-11.8 19.1ZM526.1 63.2c-3.4 0-6.1-2.7-6.1-6.1s0-.7.1-1.1l2.3-10.5V45c0-1.3-1-2.3-2.3-2.3s-.5 0-.7.1-.4 0-.4-.2l-1.4-2.8c0-.2 0-.4.2-.5.7-.3 1.5-.5 2.3-.5 3.4 0 6.1 2.7 6.1 6.1s-.1 1.3-.2 1.5l-2.3 10.4c0 1.3 1 2.5 2.4 2.4s.4 0 .6 0 .4 0 .4.2l1.3 2.8c0 .2 0 .4-.2.5-.7.3-1.4.4-2.1.4Zm-2.3-6.5ZM478.5 63.2c-.7 0-1.5-.1-2.2-.4s-.3-.3-.2-.5l1.3-2.8c0-.2.3-.2.4-.2h.6c1.3 0 2.4-1.1 2.4-2.4s-2.3-10.4-2.3-10.4c0-.2-.2-.8-.2-1.5 0-3.4 2.7-6.1 6.1-6.1s1.6.2 2.3.5.3.3.2.5l-1.4 2.8c0 .2-.3.2-.4.2s-.5-.1-.7-.1c-1.3 0-2.3 1-2.3 2.3v.5l2.3 10.5c.1.4.1.8.1 1.1 0 3.4-2.7 6.1-6.1 6.1ZM514.1 36.9c0-.2 0-.4-.2-.5-2.6-1.4-6.6-3-11.7-3h-.3c-4.8 0-8.7 1.5-11.4 2.9-.2 0-.2.3-.2.5l1.3 2.8c0 .2.3.3.5.2 2.3-1.2 5.6-2.5 9.7-2.6h.2c4.3 0 7.8 1.4 10 2.6s.4 0 .5-.2l1.3-2.8Z" class="cls-1"/><path d="M533.3 81.8c0-.6-.4-2.1-1.2-3.9-.7-1.6-1.5-2.4-2-3-.5-.5-.7-.8-.8-1.3-.3-.9-.2-2.4.7-3.5.4-.5.9-.9 1.4-1.1s.3-.3.2-.5l-1.3-2.8c0-.2-.3-.3-.5-.2-.9.4-1.9 1.1-2.8 2.1-1.8 2.2-1.9 5-1.4 6.9.4 1.4 1 2.1 1.6 2.8.5.5.9 1.1 1.4 2.1.6 1.3.8 2.5.9 2.8.5 3.1-.9 5.6-1.1 6.1-1.2 2.1-3 3.2-3.9 3.7-1.2.7-1.9.9-2.9 1.2-.9.2-2 .5-3.4 1.2-2.2 1-4.2 2.4-6 4.3h-.1c-1.1 1.4-2.5 2.5-4 3.3-1 .5-3 1.3-5.7 1.4-2.7 0-4.7-.9-5.7-1.4-1.6-.8-2.9-1.9-4-3.2h-.1c-1.8-1.9-3.8-3.4-6-4.4-1.4-.7-2.5-.9-3.4-1.2-1-.3-1.8-.5-2.9-1.2-.9-.6-2.7-1.6-3.9-3.7-.3-.5-1.6-3-1.1-6.1 0-.3.3-1.5.9-2.8.5-1.1 1-1.6 1.4-2.1.6-.7 1.2-1.4 1.6-2.8.5-1.9.4-4.6-1.4-6.9-.8-1-1.7-1.6-2.6-2.1s-.4 0-.5.2l-1.3 2.8c0 .2 0 .4.2.5.4.2.9.5 1.3 1 .9 1.1.9 2.6.7 3.5-.1.5-.4.8-.8 1.3-.5.6-1.3 1.5-2 3-.8 1.8-1.1 3.3-1.2 3.9-.6 4.2 1.1 7.6 1.6 8.5 1.7 3 4.2 4.5 5.3 5.1 1.6 1 2.8 1.3 3.9 1.6.8.2 1.6.4 2.8 1 1.7.8 3.4 2 4.9 3.4 1.5 1.7 3.2 3.1 5.2 4.1 1.3.6 3.9 1.7 7.4 1.8 3.5 0 6.1-1.2 7.4-1.8 2-1 3.7-2.4 5.2-4.1 1.5-1.5 3.1-2.6 4.9-3.4 1.1-.5 1.9-.7 2.8-1 1.1-.3 2.3-.6 3.9-1.6 1.1-.6 3.5-2.1 5.3-5.1.5-.9 2.2-4.3 1.6-8.5ZM554.7 51.1c0-3.7 2.4-6 5.4-6s2.6.2 3.4.6v2.8c-.9-.3-1.8-.5-2.9-.5-2 0-2.9 1.4-2.9 3.4s1.3 3.4 3.2 3.4 1.8-.2 2.6-.4v2.3c-1 .3-2 .5-3.3.5-3.3 0-5.5-2-5.5-5.9ZM565.1 51.4c0-3.8 2.3-6.3 5.5-6.3s5.4 2.3 5.4 6.1-2.2 5.9-5.4 5.9-5.4-2-5.4-5.7Zm7.6 0c0-2.1-.7-3.4-2.2-3.4s-2.2 1.3-2.2 3.4.8 3.2 2.2 3.2 2.2-1.3 2.2-3.2ZM581.9 45.1v9.8c0 .8 0 1.4.2 2h-3.6c.2-.6.2-1.2.2-2v-6.6c0-.9 0-1.7-.3-2.6l3.5-.6Zm10.2 9.8v-5.5c0-1.1-.6-1.5-1.7-1.5s-1.2 0-1.8.2V55c0 .8 0 1.4.3 2h-3.6c.1-.6.2-1.2.2-2v-5.5c0-1.1-.6-1.5-1.7-1.5s-1.3 0-1.9.2c.3-2 1.6-3 3.5-3s2.9 1 3.2 2.7c.4-1.8 1.6-2.7 3.5-2.7s3.2 1.3 3.2 3.4V55c0 .8 0 1.4.3 2H592c.1-.6.2-1.2.2-2ZM610.6 54.7v2c-.5.2-1.2.4-2.1.4-1.6 0-2.5-.8-2.6-2.5-.2 1.6-1.3 2.5-3.2 2.5s-3.5-1.1-3.5-3.3V48c0-.9-.2-1.6-.6-2.2l3.8-.7v8c0 1 .6 1.7 1.5 1.7s1.4-.1 1.9-.4V48c0-.9-.2-1.7-.6-2.2l4-.7c0 1.6-.1 3.9-.2 5.7v3c0 .8.4.9.9.9h.7ZM613.3 54.9v-6.6c0-.9 0-1.7-.3-2.6l3.5-.6v9.8c0 .8 0 1.4.2 2h-3.6c.2-.6.2-1.2.2-2Zm6.8 0v-5.5c0-1.1-.6-1.5-1.7-1.5s-1.3 0-1.9.2c.3-2 1.6-3 3.5-3s3.2 1.3 3.2 3.4v6.4c0 .8 0 1.4.3 2h-3.6c.1-.6.2-1.2.2-2ZM627 54.9v-6.6c0-.9 0-1.7-.3-2.6l3.5-.6v9.8c0 .8 0 1.4.2 2h-3.6c.2-.6.2-1.2.2-2Zm0-12v-2.1c0-.7 0-.7.6-.7h2.1c.5 0 .6 0 .6.6v2.2c0 .8 0 .6-.6.6h-2c-.5 0-.6 0-.6-.6ZM632.8 51.1c0-3.7 2.4-6 5.4-6s2.6.2 3.4.6v2.8c-.9-.3-1.8-.5-2.9-.5-2 0-2.9 1.4-2.9 3.4s1.3 3.4 3.2 3.4 1.8-.2 2.6-.4v2.3c-1 .3-2 .5-3.3.5-3.3 0-5.5-2-5.5-5.9ZM654 54.7v2c-.5.2-1.3.4-2.1.4-1.7 0-2.5-.9-2.7-2.4 0 1.5-.9 2.4-2.8 2.4s-3.2-1.2-3.2-3.2 1.3-3.1 3.4-3.3l2.6-.3v-1.1c0-.7-.6-1.2-1.7-1.2s-2.6.3-3.8.7v-3c1.5-.4 3-.7 4.7-.7 2.7 0 4.1 1.1 4.1 3.5s-.3 3.6-.3 5.3.3.9.9.9h.9Zm-4.8-2.4h-1.3c-.9.1-1.5.6-1.5 1.3s.6 1.1 1.4 1.1 1.1-.1 1.4-.2V52.3ZM655.5 51.1c0-3.7 2.4-6 5.4-6s2.6.2 3.4.6v2.8c-.9-.3-1.8-.5-2.9-.5-2 0-2.9 1.4-2.9 3.4s1.3 3.4 3.2 3.4 1.8-.2 2.6-.4v2.3c-1 .3-2 .5-3.3.5-3.3 0-5.5-2-5.5-5.9ZM666.7 54.9v-6.6c0-.9 0-1.7-.3-2.6l3.5-.6v9.8c0 .8 0 1.4.2 2h-3.6c.2-.6.2-1.2.2-2Zm0-12v-2.1c0-.7 0-.7.6-.7h2.1c.5 0 .6 0 .6.6v2.2c0 .8 0 .6-.6.6h-2c-.5 0-.6 0-.6-.6ZM672.6 51.4c0-3.8 2.3-6.3 5.5-6.3s5.4 2.3 5.4 6.1-2.2 5.9-5.4 5.9-5.4-2-5.4-5.7Zm7.6 0c0-2.1-.7-3.4-2.2-3.4s-2.2 1.3-2.2 3.4.8 3.2 2.2 3.2 2.2-1.3 2.2-3.2Zm-1.7-11.6h3.9l-3.2 3.7h-2.6l1.9-3.7ZM686.1 54.9v-6.6c0-.9 0-1.7-.3-2.6l3.5-.6v9.8c0 .8 0 1.4.2 2h-3.6c.2-.6.2-1.2.2-2Zm6.8 0v-5.5c0-1.1-.6-1.5-1.7-1.5s-1.3 0-1.9.2c.3-2 1.6-3 3.5-3s3.2 1.3 3.2 3.4v6.4c0 .8 0 1.4.3 2h-3.6c.1-.6.2-1.2.2-2ZM555.5 81.8v-6.6c0-.9 0-1.7-.3-2.6l3.5-.6v9.8c0 .8 0 1.4.2 2h-3.6c.2-.6.2-1.2.2-2Zm.1-12.1v-2.1c0-.7 0-.7.6-.7h2.1c.5 0 .6 0 .6.6v2.2c0 .8 0 .6-.6.6h-2c-.5 0-.6 0-.6-.6ZM562.4 81.8v-6.6c0-.9 0-1.7-.3-2.6l3.5-.6v9.8c0 .8 0 1.4.2 2h-3.6c.2-.6.2-1.2.2-2Zm6.8 0v-5.5c0-1.1-.6-1.5-1.7-1.5s-1.3 0-1.9.2c.3-2 1.6-3 3.5-3s3.2 1.3 3.2 3.4v6.4c0 .8 0 1.4.3 2H569c.1-.6.2-1.2.2-2ZM575.8 83.3v-2.5c1.2.6 2.4 1 3.8 1s1.6-.3 1.6-.9-.8-.7-1.7-1c-1.7-.5-4-1.1-4-3.8s2-4.1 4.4-4.1 2.5.2 3.4.5v2.9c-1-.4-2.3-.7-3.5-.7s-1.6.3-1.6 1 .8.8 1.8 1.1c1.7.4 3.9.9 3.9 3.6s-1.7 3.6-4.4 3.6-2.6-.2-3.6-.7ZM586.6 80.3V75h-1.9l5.1-5.5v2.7h3.7v2.9h-3.7v5.1c0 .9.6 1.4 1.5 1.4s1.5-.1 2.1-.2v2.3c-.8.3-1.9.4-3 .4-2.4 0-3.9-1-3.9-3.7ZM595.7 81.8v-6.6c0-.9 0-1.7-.3-2.6l3.5-.6v9.8c0 .8 0 1.4.2 2h-3.6c.2-.6.2-1.2.2-2Zm.1-12.1v-2.1c0-.7 0-.7.6-.7h2.1c.5 0 .6 0 .6.6v2.2c0 .8 0 .6-.6.6h-2c-.5 0-.6 0-.6-.6ZM602.6 80.3V75h-1.9l5.1-5.5v2.7h3.7v2.9h-3.7v5.1c0 .9.6 1.4 1.5 1.4s1.5-.1 2.1-.2v2.3c-.8.3-1.9.4-3 .4-2.4 0-3.9-1-3.9-3.7ZM623.2 81.6v2c-.5.2-1.2.4-2.1.4-1.6 0-2.5-.8-2.6-2.5-.2 1.6-1.3 2.5-3.2 2.5s-3.5-1.1-3.5-3.3v-5.8c0-.9-.2-1.6-.6-2.2l3.8-.7v8c0 1 .6 1.7 1.5 1.7s1.4-.1 1.9-.4v-6.4c0-.9-.2-1.7-.6-2.2l4-.7c0 1.6-.1 3.9-.2 5.7v3c0 .8.4.9.9.9h.7ZM625 78c0-3.7 2.4-6 5.4-6s2.6.2 3.4.6v2.8c-.9-.3-1.8-.5-2.9-.5-2 0-2.9 1.4-2.9 3.4s1.3 3.4 3.2 3.4 1.8-.2 2.6-.4v2.3c-1 .3-2 .5-3.3.5-3.3 0-5.5-2-5.5-5.9ZM636.2 81.8v-6.6c0-.9 0-1.7-.3-2.6l3.5-.6v9.8c0 .8 0 1.4.2 2H636c.2-.6.2-1.2.2-2Zm0-12.1v-2.1c0-.7 0-.7.6-.7h2.1c.5 0 .6 0 .6.6v2.2c0 .8 0 .6-.6.6h-2c-.5 0-.6 0-.6-.6ZM642.1 78.3c0-3.8 2.3-6.3 5.5-6.3s5.4 2.3 5.4 6.1-2.2 5.9-5.4 5.9-5.4-2-5.4-5.7Zm7.6 0c0-2.1-.7-3.4-2.2-3.4s-2.2 1.3-2.2 3.4.8 3.2 2.2 3.2 2.2-1.3 2.2-3.2ZM655.6 81.8v-6.6c0-.9 0-1.7-.3-2.6l3.5-.6v9.8c0 .8 0 1.4.2 2h-3.6c.2-.6.2-1.2.2-2Zm6.8 0v-5.5c0-1.1-.6-1.5-1.7-1.5s-1.3 0-1.9.2c.3-2 1.6-3 3.5-3s3.2 1.3 3.2 3.4v6.4c0 .8 0 1.4.3 2h-3.6c.1-.6.2-1.2.2-2ZM679.1 81.6v2c-.5.2-1.3.4-2.1.4-1.7 0-2.5-.9-2.7-2.4 0 1.5-.9 2.4-2.8 2.4s-3.2-1.2-3.2-3.2 1.3-3.1 3.4-3.3l2.6-.3v-1.1c0-.7-.6-1.2-1.7-1.2s-2.6.3-3.8.7v-3c1.5-.4 3-.7 4.7-.7 2.7 0 4.1 1.1 4.1 3.5s-.3 3.6-.3 5.3.3.9.9.9h.9Zm-4.8-2.4H673c-.9.1-1.5.6-1.5 1.3s.6 1.1 1.4 1.1 1.1-.1 1.4-.2V79.2ZM681.6 81.7V68.8c0-.9-.1-1.9-.6-2.7l3.8-.6v16.1c0 .8 0 1.4.2 2h-3.7c.1-.5.2-1.1.2-2Z" class="cls-1"/></svg>