<svg xmlns="http://www.w3.org/2000/svg" viewBox="0 0 19 418"><circle cx="4.5" cy="9.6" r="2.4" fill="#fff"/><path fill="#fff" d="m12.8 2.9-2.2 1 2.2.9 1 2.4 1-2.4 2.2-.9-2.2-1-1-2.4-1 2.4z"/><circle cx="13.8" cy="16.1" r="1.6" fill="none" stroke="#fff" stroke-miterlimit="10" stroke-width="1.32"/><circle cx="9.6" cy="28.5" r="7.5" fill="none" stroke="#fff" stroke-miterlimit="10" stroke-opacity=".3" stroke-width="1.5"/><g><path fill="none" stroke="#fff" stroke-miterlimit="10" stroke-width="1.5" d="M9.6 21c4.1 0 7.5 3.4 7.5 7.5"/><animateTransform attributeName="transform" dur="1s" from="0 9.6 28.5" repeatCount="indefinite" to="360 9.6 28.5" type="rotate"/></g><circle cx="9.5" cy="47.4" r="7.5" fill-opacity=".5" stroke="#FFF" stroke-miterlimit="10" stroke-width="1.5"/><path fill="#FFF" fill-rule="evenodd" d="M13 47.8c.3-.2.3-.4 0-.6l-5-2.9c-.3-.2-.5 0-.5.3v5.8c0 .3.2.4.5.3l5-2.9z" clip-rule="evenodd"/><path fill="#fec24a" d="m15.8 331.2-11-6.5c-.9-.5-2.3 0-2.3 1.3v13c0 1.2 1.3 1.9 2.3 1.3l11-6.5c.9-.6.9-2 0-2.6zm-9.1 28.3H3.3c-.9 0-1.7-.8-1.7-1.7v-12.6c0-.9.8-1.7 1.7-1.7h3.4c.9 0 1.7.8 1.7 1.7v12.6c0 .9-.8 1.7-1.7 1.7zm10.8-1.7v-12.6c0-.9-.8-1.7-1.7-1.7h-3.4c-.9 0-1.7.8-1.7 1.7v12.6c0 .9.8 1.7 1.7 1.7h3.4c1 0 1.7-.8 1.7-1.7zm-8 4.7c-2.1 0-4.1.8-5.5 2.2l-1.2-1.2c-.5-.5-1.3-.1-1.3.5v4.3c0 .4.3.8.8.8h4.3c.7 0 1-.8.5-1.3l-1.3-1.3c1-.9 2.3-1.4 3.7-1.5 3 0 5.5 2.4 5.5 5.5 0 2.9-2.4 5.4-5.4 5.4-1.3 0-2.6-.5-3.6-1.3-.2-.1-.4-.1-.5 0l-1.3 1.3c-.2.2-.1.4 0 .6 1.4 1.3 3.3 2.1 5.4 2.1 4.4 0 8-3.6 8-8-.1-4.5-3.7-8.1-8.1-8.1z"/></svg>